{
  "accessors": [
    {
      "bufferView": 2,
      "componentType": 5126,
      "count": 13466,
      "max": [
        136.10906982421875,
        602.6724853515625,
        132.6016082763672
      ],
      "min": [
        -138.95477294921875,
        -2.402707576751709,
        -130.55712890625
      ],
      "type": "VEC3"
    },
    {
      "bufferView": 2,
      "byteOffset": 161592,
      "componentType": 5126,
      "count": 13466,
      "max": [
        1.0,
        1.0,
        1.0
      ],
      "min": [
        -1.0,
        -1.0,
        -1.0
      ],
      "type": "VEC3"
    },
    {
      "bufferView": 1,
      "componentType": 5126,
      "count": 13466,
      "max": [
        0.998008131980896,
        0.9543695449829102
      ],
      "min": [
        0.0019920463673770428,
        0.001904904842376709
      ],
      "type": "VEC2"
    },
    {
      "bufferView": 0,
      "componentType": 5125,
      "count": 35922,
      "type": "SCALAR"
    },
    {
      "bufferView": 2,
      "byteOffset": 323184,
      "componentType": 5126,
      "count": 96,
      "max": [
        14.928955078125,
        46.99443054199219,
        70.67015075683594
      ],
      "min": [
        14.0322265625,
        43.883445739746094,
        69.26979064941406
      ],
      "type": "VEC3"
    },
    {
      "bufferView": 2,
      "byteOffset": 324336,
      "componentType": 5126,
      "count": 96,
      "max": [
        0.9799772500991821,
        0.9576503038406372,
        0.9831801056861877
      ],
      "min": [
        -0.9694169759750366,
        -0.9576475620269775,
        -0.9831781387329102
      ],
      "type": "VEC3"
    },
    {
      "bufferView": 1,
      "byteOffset": 107728,
      "componentType": 5126,
      "count": 96,
      "max": [
        0.9810608625411987,
        0.9533097743988037
      ],
      "min": [
        0.035197317600250244,
        0.9451926946640015
      ],
      "type": "VEC2"
    },
    {
      "bufferView": 0,
      "byteOffset": 143688,
      "componentType": 5125,
      "count": 168,
      "type": "SCALAR"
    }
  ],
  "asset": {
    "extras": {
      "author": "Jesse (https://sketchfab.com/Leviiossa)",
      "license": "CC-BY-4.0 (http://creativecommons.org/licenses/by/4.0/)",
      "source": "https://sketchfab.com/3d-models/witch-hut-89b6f92f774b4fac81a7ff5f74e66fe1",
      "title": "Witch Hut"
    },
    "generator": "Sketchfab-12.68.0",
    "version": "2.0"
  },
  "bufferViews": [
    {
      "buffer": 0,
      "byteLength": 144360,
      "name": "floatBufferViews",
      "target": 34963
    },
    {
      "buffer": 0,
      "byteLength": 108496,
      "byteOffset": 144360,
      "byteStride": 8,
      "name": "floatBufferViews",
      "target": 34962
    },
    {
      "buffer": 0,
      "byteLength": 325488,
      "byteOffset": 252856,
      "byteStride": 12,
      "name": "floatBufferViews",
      "target": 34962
    }
  ],
  "buffers": [
    {
      "byteLength": 578344,
      "uri": "scene.bin"
    }
  ],
  "images": [
    {
      "uri": "textures/aiAmbientOcclusion1_baseColor.jpeg"
    },
    {
      "uri": "textures/aiAmbientOcclusion1_metallicRoughness.png"
    }
  ],
  "materials": [
    {
      "doubleSided": true,
      "name": "aiAmbientOcclusion1",
      "pbrMetallicRoughness": {
        "baseColorTexture": {
          "index": 0
        },
        "metallicRoughnessTexture": {
          "index": 1
        }
      }
    },
    {
      "doubleSided": true,
      "name": "lambert1",
      "pbrMetallicRoughness": {
        "baseColorFactor": [
          0.5,
          0.5,
          0.5,
          1.0
        ],
        "metallicFactor": 0.0,
        "roughnessFactor": 0.6
      }
    }
  ],
  "meshes": [
    {
      "name": "polySurface177_aiAmbientOcclusion1_0",
      "primitives": [
        {
          "attributes": {
            "NORMAL": 1,
            "POSITION": 0,
            "TEXCOORD_0": 2
          },
          "indices": 3,
          "material": 0,
          "mode": 4
        }
      ]
    },
    {
      "name": "polySurface177_lambert1_0",
      "primitives": [
        {
          "attributes": {
            "NORMAL": 5,
            "POSITION": 4,
            "TEXCOORD_0": 6
          },
          "indices": 7,
          "material": 1,
          "mode": 4
        }
      ]
    }
  ],
  "nodes": [
    {
      "children": [
        1
      ],
      "matrix": [
        1.0,
        0.0,
        0.0,
        0.0,
        0.0,
        2.220446049250313e-16,
        -1.0,
        0.0,
        0.0,
        1.0,
        2.220446049250313e-16,
        0.0,
        0.0,
        0.0,
        0.0,
        1.0
      ],
      "name": "Sketchfab_model"
    },
    {
      "children": [
        2
      ],
      "matrix": [
        1.0,
        0.0,
        0.0,
        0.0,
        0.0,
        0.0,
        1.0,
        0.0,
        0.0,
        -1.0,
        0.0,
        0.0,
        0.0,
        0.0,
        0.0,
        1.0
      ],
      "name": "252641ea545f48e3ae33db0548a12345.fbx"
    },
    {
      "children": [
        3
      ],
      "name": "RootNode"
    },
    {
      "children": [
        4,
        5
      ],
      "name": "polySurface177"
    },
    {
      "mesh": 0,
      "name": "polySurface177_aiAmbientOcclusion1_0"
    },
    {
      "mesh": 1,
      "name": "polySurface177_lambert1_0"
    }
  ],
  "samplers": [
    {
      "magFilter": 9729,
      "minFilter": 9987,
      "wrapS": 10497,
      "wrapT": 10497
    }
  ],
  "scene": 0,
  "scenes": [
    {
      "name": "Sketchfab_Scene",
      "nodes": [
        0
      ]
    }
  ],
  "textures": [
    {
      "sampler": 0,
      "source": 0
    },
    {
      "sampler": 0,
      "source": 1
    }
  ]
}
